<?xml version="1.0" standalone="no"?>
<!DOCTYPE svg PUBLIC "-//W3C//DTD SVG 20010904//EN"
 "http://www.w3.org/TR/2001/REC-SVG-20010904/DTD/svg10.dtd">
<svg version="1.0" xmlns="http://www.w3.org/2000/svg"
 width="512.000000pt" height="512.000000pt" viewBox="0 0 512.000000 512.000000"
 preserveAspectRatio="xMidYMid meet">

<g transform="translate(0.000000,512.000000) scale(0.100000,-0.100000)"
fill="#000000" stroke="none">
<path fill="#134e4a" d="M2291 5044 c-34 -17 -62 -41 -79 -67 l-27 -41 -5 -760 -5 -761 -23
-56 c-12 -31 -31 -64 -41 -73 -17 -16 -20 -13 -49 53 -36 80 -76 215 -94 316
-8 46 -12 154 -10 310 2 264 -4 305 -58 400 -61 106 -180 199 -294 230 -47 13
-90 16 -163 13 -88 -3 -106 -7 -173 -39 -222 -107 -540 -487 -747 -896 -187
-368 -308 -744 -402 -1248 -124 -667 -152 -1222 -80 -1577 23 -118 34 -142 66
-157 34 -16 47 -14 77 10 32 25 32 45 7 164 -77 357 -39 970 105 1675 150 732
436 1332 819 1715 177 178 238 211 378 203 59 -3 94 -11 125 -27 66 -34 128
-96 159 -160 l28 -56 0 -250 c1 -196 5 -271 19 -350 24 -133 75 -290 129 -395
l43 -85 -72 -85 c-104 -121 -251 -272 -383 -395 l-115 -106 -39 38 c-21 21
-63 68 -94 106 l-56 67 8 111 c4 60 16 151 26 202 34 161 34 155 9 182 -32 34
-82 34 -109 0 -20 -27 -61 -180 -61 -233 0 -17 -4 -33 -9 -36 -10 -6 -71 121
-105 219 -35 103 -35 103 -67 114 -62 21 -106 -21 -95 -91 9 -58 70 -209 121
-304 l44 -82 -122 -4 c-150 -6 -227 -31 -247 -79 -16 -38 -2 -74 35 -91 21 -9
40 -8 96 7 57 14 93 17 192 12 67 -3 132 -9 144 -12 12 -4 50 -41 85 -82 35
-41 76 -90 92 -108 l28 -33 -72 -69 c-87 -81 -181 -195 -246 -298 l-47 -74
-49 40 c-73 62 -175 194 -219 286 -51 108 -93 130 -144 78 -35 -34 -31 -60 20
-163 25 -49 45 -92 45 -95 0 -2 -19 -7 -43 -10 -24 -3 -76 -18 -116 -33 -60
-22 -76 -33 -86 -57 -17 -41 -2 -82 35 -97 24 -10 40 -8 103 14 41 14 109 29
149 34 l75 8 78 -72 78 -73 -27 -63 c-45 -101 -85 -216 -117 -327 -16 -57 -31
-106 -33 -108 -2 -2 -20 -1 -39 2 -31 6 -38 14 -61 65 -15 32 -31 84 -37 117
-21 109 -112 143 -148 55 -11 -27 -2 -98 25 -183 4 -14 -8 -18 -67 -23 -85 -9
-113 -20 -128 -53 -15 -34 -14 -47 8 -74 18 -23 25 -24 153 -25 144 0 274 -25
264 -49 -2 -7 -12 -71 -21 -142 -20 -160 -13 -197 49 -259 84 -85 197 -82 284
7 31 32 38 48 62 147 6 24 15 40 21 36 30 -18 144 -167 171 -223 17 -36 38
-74 46 -83 21 -25 77 -23 102 2 28 28 25 64 -10 138 -35 75 -36 82 -10 82 33
0 151 47 165 67 29 38 13 97 -32 114 -19 7 -42 4 -97 -15 -39 -13 -93 -26
-121 -29 -50 -6 -50 -6 -114 53 l-64 59 27 78 c43 123 167 368 245 486 40 59
74 107 76 107 2 0 20 -24 41 -52 l38 -53 -3 -140 c-3 -143 6 -229 34 -323 13
-43 22 -56 49 -68 30 -15 36 -15 64 0 41 21 47 50 27 117 -20 68 -33 249 -17
249 6 0 14 -5 18 -11 3 -6 42 -37 86 -70 93 -69 133 -77 167 -33 21 27 27 60
13 80 -4 7 -36 33 -72 59 -88 65 -134 106 -204 184 -53 60 -136 172 -136 185
0 7 212 192 297 260 145 114 306 227 313 219 11 -11 37 -172 55 -334 39 -351
44 -929 11 -1180 -41 -308 -128 -499 -267 -591 -118 -77 -240 -105 -519 -119
-356 -17 -619 3 -782 60 -135 48 -204 101 -334 254 -38 44 -73 48 -109 12 -43
-42 -29 -85 63 -193 96 -112 252 -203 427 -247 135 -34 354 -49 620 -41 362
11 492 32 640 105 216 107 336 305 394 652 67 398 51 1095 -36 1582 l-26 148
67 65 c37 36 82 89 102 118 68 104 140 102 210 -3 21 -31 66 -84 102 -118 l64
-61 -21 -119 c-51 -286 -70 -494 -78 -883 -22 -1033 166 -1399 752 -1469 50
-5 194 -13 320 -17 405 -11 626 19 810 110 267 133 418 378 482 781 24 153 24
575 -1 805 -71 668 -204 1247 -385 1680 -68 162 -197 413 -227 441 -48 45
-124 15 -124 -48 0 -14 25 -69 55 -122 187 -335 334 -770 429 -1271 151 -802
165 -1382 41 -1730 -43 -119 -92 -198 -174 -281 -137 -138 -288 -191 -592
-210 -204 -13 -601 2 -711 26 -350 76 -475 282 -519 848 -15 188 -6 684 16
917 15 158 52 416 62 433 6 10 31 -6 178 -116 132 -99 288 -226 380 -310 l59
-54 -59 -82 c-68 -94 -214 -239 -296 -293 -75 -50 -87 -82 -48 -132 14 -18 30
-26 51 -26 33 0 108 46 183 112 l48 42 -5 -94 c-3 -52 -14 -126 -23 -163 -15
-57 -16 -72 -5 -92 19 -35 62 -50 97 -33 54 26 86 180 81 398 l-3 136 39 53
c21 29 42 49 47 44 4 -4 37 -53 74 -108 79 -118 187 -332 234 -463 l34 -93
-64 -59 c-64 -59 -64 -59 -114 -53 -27 3 -83 16 -122 30 -64 21 -76 23 -100
11 -32 -15 -49 -54 -39 -92 8 -30 59 -58 146 -79 28 -6 50 -15 50 -18 0 -4
-13 -34 -30 -67 -49 -100 -34 -162 39 -162 45 0 58 13 93 90 28 61 97 157 152
209 l35 34 6 -29 c4 -16 11 -47 17 -69 27 -113 140 -184 246 -156 72 20 124
78 143 161 8 31 -12 242 -27 291 -8 29 110 53 264 53 128 1 135 2 153 25 22
27 23 40 8 74 -15 33 -43 44 -129 53 -67 6 -71 8 -65 28 3 11 12 51 21 89 13
59 13 71 0 96 -24 46 -67 54 -109 21 -18 -15 -28 -35 -35 -80 -6 -33 -23 -87
-37 -119 -24 -52 -31 -60 -62 -66 -19 -3 -37 -5 -39 -2 -2 2 -22 64 -43 138
-22 74 -60 181 -85 238 -25 57 -46 109 -46 115 0 6 35 43 78 81 l77 70 70 -7
c39 -4 107 -19 153 -34 l82 -28 28 21 c31 23 41 77 20 106 -15 20 -169 77
-210 77 -16 0 -28 2 -28 5 0 3 21 48 46 100 36 75 44 101 39 125 -7 34 -38 60
-71 60 -31 0 -71 -36 -79 -69 -15 -68 -142 -242 -233 -318 l-49 -42 -46 72
c-65 102 -163 221 -247 301 l-72 68 18 23 c83 102 170 194 188 200 11 3 76 9
143 12 99 5 135 2 192 -12 56 -15 75 -16 96 -7 37 17 51 53 35 91 -20 48 -97
73 -246 79 l-122 4 53 104 c66 129 121 289 111 327 -9 38 -59 62 -96 47 -31
-13 -31 -13 -66 -115 -32 -93 -95 -226 -104 -220 -4 3 -10 31 -14 64 -9 82
-40 188 -61 211 -25 28 -76 26 -103 -3 -27 -28 -27 -35 -2 -139 11 -46 25
-145 32 -220 l12 -136 -56 -69 c-31 -37 -74 -85 -96 -106 l-39 -38 -203 198
c-112 109 -241 241 -286 293 l-83 94 28 51 c40 70 96 215 120 310 39 154 45
216 45 475 l1 255 29 53 c34 61 95 120 158 154 37 19 58 23 143 23 84 0 107
-4 147 -23 90 -45 214 -165 424 -415 19 -23 30 -28 60 -25 46 4 80 43 70 82
-10 41 -120 172 -256 306 -182 179 -256 220 -418 228 -116 6 -197 -14 -281
-68 -110 -71 -176 -156 -212 -270 -16 -52 -19 -87 -17 -175 8 -302 -3 -446
-49 -605 -22 -75 -83 -220 -93 -220 -5 0 -24 30 -42 67 l-33 68 -5 766 -5 766
-29 41 c-18 26 -47 51 -79 67 -50 24 -56 25 -267 25 -213 0 -217 0 -269 -26z
m482 -142 c15 -16 16 -94 19 -767 l3 -750 24 -60 c30 -75 57 -118 140 -225
169 -218 321 -375 613 -631 296 -260 382 -358 493 -559 133 -240 224 -531 269
-857 17 -119 15 -138 -16 -154 -30 -16 -57 -1 -68 39 -5 20 -19 73 -30 117
-48 181 -195 522 -299 693 -173 282 -371 470 -872 825 -157 111 -209 158 -267
245 -50 73 -97 107 -169 123 -103 23 -203 -18 -264 -109 -58 -86 -142 -162
-324 -292 -521 -372 -721 -579 -913 -940 -89 -167 -191 -443 -232 -625 -18
-81 -63 -111 -95 -62 -12 20 -13 37 -5 108 47 377 171 742 338 994 94 142 176
230 358 385 347 296 708 689 798 869 55 107 56 125 56 900 0 651 1 716 17 733
15 16 35 18 213 18 176 0 199 -2 213 -18z"/>
</g>
</svg>
